<svg width="17" height="13" viewBox="0 0 17 13" fill="none" xmlns="http://www.w3.org/2000/svg">
<path fill-rule="evenodd" clip-rule="evenodd" d="M12.5354 0C13.7254 0 14.3204 -7.04162e-08 14.7773 0.257543C15.1768 0.484369 15.5019 0.845874 15.7059 1.29008C15.9375 1.79571 15.9375 2.45729 15.9375 3.78281V9.21719C15.9375 10.5403 15.9375 11.2019 15.7059 11.7099L15.6506 11.8186H16.4688C16.6096 11.8186 16.7448 11.8808 16.8444 11.9916C16.944 12.1024 17 12.2526 17 12.4093C17 12.566 16.944 12.7162 16.8444 12.827C16.7448 12.9378 16.6096 13 16.4688 13H0.53125C0.390354 13 0.255228 12.9378 0.1556 12.827C0.0559708 12.7162 0 12.566 0 12.4093C0 12.2526 0.0559708 12.1024 0.1556 11.9916C0.255228 11.8808 0.390354 11.8186 0.53125 11.8186H1.34938L1.29413 11.7099C1.0625 11.2043 1.0625 10.5427 1.0625 9.21719V3.78281C1.0625 2.45965 1.0625 1.79807 1.29413 1.29008C1.49813 0.845874 1.82325 0.484369 2.22275 0.257543C2.56381 0.0649763 2.9835 0.0153581 3.67837 0.00354419L4.46675 0H12.5417H12.5354ZM4.46037 1.18139C3.84731 1.18139 3.45206 1.18257 3.1535 1.20974C2.8645 1.23691 2.75825 1.28063 2.70513 1.31016C2.50521 1.42342 2.34268 1.60414 2.24081 1.82643C2.21425 1.8855 2.17387 2.00363 2.1505 2.32497C2.12606 2.65931 2.125 3.09996 2.125 3.77808V9.21247C2.125 9.89413 2.125 10.3348 2.1505 10.6656C2.17387 10.9869 2.21425 11.1051 2.24081 11.1641C2.34286 11.386 2.50537 11.5663 2.70513 11.6792C2.75825 11.7099 2.8645 11.7536 3.1535 11.7796C3.45419 11.808 3.8505 11.8092 4.46037 11.8092H12.5354C13.1484 11.8092 13.5437 11.808 13.8422 11.7796C14.1312 11.7536 14.2375 11.7087 14.2906 11.6792C14.49 11.5661 14.6521 11.3858 14.7539 11.1641C14.7804 11.1062 14.8208 10.9869 14.8442 10.6656C14.8686 10.3312 14.8697 9.89059 14.8697 9.21247V3.77808C14.8697 3.09642 14.8697 2.65694 14.8442 2.32497C14.8208 2.00363 14.7804 1.8855 14.7539 1.82643C14.6523 1.60432 14.4901 1.42362 14.2906 1.31016C14.2375 1.28063 14.1312 1.23691 13.8422 1.20974C13.4071 1.18276 12.9712 1.1733 12.5354 1.18139H10.6229L10.5613 1.31725C10.3913 1.69647 10.3062 1.88668 10.1788 2.02608C10.066 2.14827 9.9303 2.24108 9.78137 2.2978C9.6135 2.36278 9.42225 2.36278 9.04081 2.36278H7.95706C7.57563 2.36278 7.38438 2.36278 7.2165 2.2978C7.06757 2.24108 6.93184 2.14827 6.81913 2.02608C6.69163 1.88786 6.60663 1.69647 6.43663 1.31725L6.37606 1.18139H4.46356H4.46037Z" fill="#008645"/>
</svg>
